<?xml version="1.0" encoding="UTF-8"?><!DOCTYPE svg PUBLIC "-//W3C//DTD SVG 1.1//EN" "http://www.w3.org/Graphics/SVG/1.1/DTD/svg11.dtd"><svg xmlns="http://www.w3.org/2000/svg" xmlns:xlink="http://www.w3.org/1999/xlink"><symbol id="icon-cart" viewBox="264.205 370.961 20.294 18.849">
  <path fill="#231F20" d="M283.75,378.19h-3.151l-3.407-6.814c-0.185-0.37-0.634-0.52-1.006-0.335 c-0.371,0.186-0.521,0.636-0.335,1.006l3.071,6.143h-9.138l3.072-6.143c0.185-0.371,0.035-0.821-0.335-1.006 c-0.37-0.185-0.821-0.035-1.006,0.335l-3.407,6.814h-3.151c-0.414,0-0.75,0.336-0.75,0.75s0.336,0.75,0.75,0.75h0.157l0.855,2.991 c-0.187,0.137-0.316,0.347-0.316,0.595c0,0.396,0.309,0.71,0.697,0.739l1.656,5.795h12.697l1.656-5.795 c0.388-0.028,0.698-0.344,0.698-0.739c0-0.249-0.129-0.459-0.316-0.596l0.854-2.991h0.157c0.414,0,0.75-0.336,0.75-0.75 S284.164,378.19,283.75,378.19z M279.569,388.311h-10.433l-1.224-4.284h12.881L279.569,388.311z M281.222,382.526h-13.739 l-0.81-2.836h15.359L281.222,382.526z"/>
</symbol><symbol id="icon-fb" viewBox="56.519 49.996 14.962 27.718">
  <g id="facebook">
    <g>
      <path fill="#231F20" d="M68.181,55.188c1.026,0.029,1.993,0,2.681-0.3c0.391-0.818,0.556-1.854,0.619-2.989 c-0.19-0.015-0.062-0.337-0.207-0.399c-0.029-0.202-0.278-0.195-0.309-0.398c-0.277-0.165-0.457-0.422-0.723-0.598 c-0.727-0.162-1.44-0.335-2.164-0.499c-0.849,0.044-1.895-0.103-2.58,0.1c-2.619-0.04-3.997,1.12-5.259,2.392 c-0.023,0.078-0.003,0.197-0.105,0.199c-0.574,1.587-0.125,3.621-0.204,5.581c0.099,0.436,0.107,0.958,0.204,1.395 c-0.998,0.296-2.212,0.387-3.402,0.499c-0.317,0.324-0.178,1.089-0.206,1.693c0.085,0.583,0.278,1.06,0.413,1.595 c0.211,0.193,0.596,0.396,0.825,0.498c0.065,0.029,0.071,0.082,0.103,0.1c0.506,0.268,1.451,0.008,2.268,0.1 c-0.136,1.978,0.256,3.915,0,5.68c0.007,0.327,0.295,0.382,0.208,0.798c-0.001,0.963-0.067,1.99,0.208,2.69 c-0.287,0.455-0.497,0.982-0.415,1.794c0.122,0.016,0.114,0.157,0.105,0.299c-0.075,0.47,0.643,0.175,0.515,0.698 c0.162,0.456-0.428,0.184-0.413,0.498v0.896c0.53,0.285,1.462,0.182,2.268,0.199c0.908-0.419,2.188-0.479,2.785-1.196 c0.459,0.235,0.916-0.014,1.238-0.199c-0.018-0.315,0.273-0.333,0.205-0.698c-0.004-0.328-0.173-0.496-0.103-0.896V71.83 c-0.206-2.293-0.048-4.938-0.309-7.176c0.888-0.105,1.917-0.075,2.578-0.398c0.357-0.451,0.377-1.23,0.516-1.895 c0.177-0.226,0.221-0.583,0.206-0.996c0.19-0.213,0.068-0.729,0.104-1.096c-0.141-0.595-0.168-1.3-0.825-1.39 c-0.884-0.235-2.043,0.595-2.991,0.299c0.049-1.134-0.293-2.342,0-3.388C66.761,55.609,67.461,55.39,68.181,55.188z M64.363,59.971c0.117,0.254,0.254,0.486,0.414,0.698c0.079,0.022,0.203,0.003,0.205,0.101c1.192,0.056,2.199-0.069,3.096-0.299 c0,0.998-0.271,1.733-0.518,2.492c-0.662,0.045-1.467,0.3-1.958,0.198c-0.276,0.165-0.372,0.506-0.62,0.698 c-0.049,0.441,0.142,0.495,0,0.797c-0.201,0.137-0.055,0.611-0.205,0.796v1.496c0.085,0.281-0.146,0.258-0.104,0.497v3.488 c-0.085,0.281,0.146,0.258,0.104,0.498v2.989c0.063,0.271-0.132,0.791,0.103,0.896c-0.07,0.364-0.412-0.021-0.824,0.1 c-0.528,0.122-0.926,0.369-1.548,0.4c0.117-0.353,0.32-0.622,0.311-1.097c0.049-0.381-0.365-0.312-0.516-0.49 c0.193-0.644,0.562-1.117,0.722-1.793c0.197-0.515,0.714-1.298,0.31-1.794c-0.522-0.105-0.521,0.293-0.826,0.398 c-0.022,0.077-0.002,0.196-0.103,0.199c-0.023,0.077-0.003,0.196-0.103,0.199c0.01,0.12-0.151,0.062,0,0 c0.022-0.078,0.002-0.197,0.103-0.199c0.023-0.077,0.002-0.197,0.103-0.199v-0.299c0.368-0.575,0.67-1.214,0.826-1.993 c0.191-0.28,0.283-0.656,0.412-0.997c0.156-0.262,0.34-0.869,0.104-1.195c-0.517,0.033-0.796,0.295-0.93,0.697 c-0.32-0.189,0.161-0.434,0.104-0.697c0.138-0.231,0.169-0.566,0.309-0.797c0.202-0.413,0.564-1.304,0-1.596 c-0.438-0.023-0.612,0.207-0.723,0.498c-0.214,0.191-0.43,0.383-0.516,0.698c-0.373-0.07-0.143-0.727-0.206-1.097 c-0.067-0.52,0.122-0.899,0-1.195c-0.56-0.799-2.026-0.105-3.197-0.299c-0.108-0.307-0.222-0.984-0.104-1.195 c1.045-0.088,2.479,0.201,3.197-0.199c0.024-0.078,0.003-0.197,0.104-0.199c0.094-0.723-0.271-1-0.515-1.396 c0.232-0.806,0.04-2.02,0.104-2.989c0.233-0.141,0.328-0.414,0.515-0.598c0.112-0.955,0.673-1.476,0.722-2.49 c-0.273,0.001-0.607-0.055-0.619,0.199c-0.302-0.114-0.382,0.479-0.515,0.199c-0.112-0.541,0.246-0.626,0.309-0.997 c0.599-0.418,1.212-0.82,1.856-1.195c1.741-0.244,4.648-0.449,6.086,0.198c0.051,0.616-0.287,0.854-0.207,1.496h-1.546 c-1.092,0.24-1.987,0.672-2.991,0.997c-0.24,0.066-0.276,0.331-0.516,0.398c-0.036,0.396-0.225,0.646-0.311,0.996 C64.182,57.424,64.394,58.582,64.363,59.971z"/>
    </g>
  </g>
</symbol><symbol id="icon-feature-ball" viewBox="0 0 34.373 34.373">
  <g>
    <path d="M0.286,14.069c-0.382,2.073-0.384,4.211,0.008,6.301l4.121-3.21L0.286,14.069z"/>
    <path d="M24.403,1.585C19.62-0.623,13.959-0.559,9.149,1.992l7.513,5.625L24.403,1.585z"/>
    <path d="M33.901,13.175l-4.811,3.748l4.936,3.695C34.522,18.173,34.489,15.63,33.901,13.175z"/>
    <path d="M9.209,32.414c4.844,2.534,10.724,2.65,15.73,0.113l-8.096-6.062L9.209,32.414z"/>
    <path d="M7.914,14.433L1.681,9.767c-0.32,0.669-0.595,1.356-0.825,2.056l5.308,3.974L7.914,14.433z"/>
    <path d="M18.593,25.102l8.336,6.242c0.277-0.191,0.551-0.391,0.82-0.601c0.318-0.248,0.625-0.505,0.92-0.771l-8.326-6.234 L18.593,25.102z"/>
    <path d="M11.413,11.707L4.002,6.158C3.54,6.709,3.117,7.285,2.733,7.881l6.931,5.189L11.413,11.707z"/>
    <path d="M22.093,22.375l8.092,6.059c0.471-0.544,0.904-1.112,1.297-1.701l-7.639-5.721L22.093,22.375z"/>
    <path d="M14.913,8.98L7.196,3.203C7.003,3.341,6.812,3.482,6.623,3.629C6.227,3.938,5.849,4.261,5.487,4.597l7.676,5.747 L14.913,8.98z"/>
    <path d="M25.592,19.649l6.972,5.221c0.33-0.662,0.615-1.341,0.855-2.033l-6.077-4.55L25.592,19.649z"/>
    <path d="M26.448,2.706L0.88,22.626c0.233,0.698,0.513,1.386,0.839,2.059l26.52-20.663C27.667,3.541,27.068,3.102,26.448,2.706z"/>
    <path d="M30.743,6.624c-0.301-0.386-0.614-0.754-0.939-1.106L2.786,26.567c0.262,0.402,0.542,0.797,0.843,1.183 c0.142,0.183,0.288,0.359,0.436,0.534L31.155,7.176C31.021,6.99,30.886,6.806,30.743,6.624z"/>
    <path d="M32.298,8.999L5.552,29.838c0.544,0.501,1.114,0.962,1.708,1.382l25.962-20.228C32.959,10.314,32.651,9.648,32.298,8.999z"/>
  </g>
</symbol><symbol id="icon-feature-flower" viewBox="8.014 4.35 31.972 37.301">
  <path fill="#63D1BB" d="M24,41.65c8.827,0,15.986-7.159,15.986-15.986C31.158,25.664,24,32.822,24,41.65z M12.641,20.78 c0,2.451,1.989,4.441,4.44,4.441c0.932,0,1.803-0.294,2.513-0.782l-0.036,0.337c0,2.451,1.99,4.441,4.441,4.441 s4.44-1.99,4.44-4.441l-0.036-0.337c0.719,0.497,1.582,0.782,2.514,0.782c2.451,0,4.44-1.99,4.44-4.441 c0-1.768-1.038-3.286-2.54-3.997c1.492-0.71,2.54-2.229,2.54-3.997c0-2.451-1.989-4.44-4.44-4.44c-0.932,0-1.803,0.293-2.514,0.781 L28.44,8.79c0-2.451-1.989-4.44-4.44-4.44s-4.441,1.99-4.441,4.44l0.036,0.337c-0.719-0.497-1.581-0.781-2.513-0.781 c-2.451,0-4.44,1.99-4.44,4.44c0,1.768,1.039,3.286,2.54,3.997C13.68,17.494,12.641,19.012,12.641,20.78z M24,12.343 c2.451,0,4.44,1.989,4.44,4.44c0,2.451-1.989,4.44-4.44,4.44s-4.441-1.99-4.441-4.44C19.559,14.332,21.549,12.343,24,12.343z  M8.014,25.664c0,8.827,7.158,15.986,15.986,15.986C24,32.822,16.842,25.664,8.014,25.664z"/>
</symbol><symbol id="icon-feature-gift" viewBox="239.665 239.757 32.666 32.486">
  <path fill="#63d1bb" d="M242.56,272.243h12.504v-13.91H242.56V272.243z M270.742,248.623h-7.335 c0.521-0.267,0.984-0.549,1.396-0.845c1.588-1.133,2.424-2.57,2.42-3.999c0.002-1.169-0.556-2.202-1.359-2.901 c-0.805-0.704-1.869-1.119-3.016-1.121c-1.22-0.001-2.352,0.421-3.32,1.069c-1.459,0.979-2.606,2.451-3.424,4.067 c-0.039,0.079-0.078,0.157-0.115,0.236c-0.299-0.623-0.647-1.226-1.041-1.792c-0.691-0.985-1.523-1.86-2.497-2.511 c-0.97-0.646-2.103-1.069-3.322-1.069c-1.213,0.004-2.323,0.514-3.155,1.295c-0.828,0.783-1.41,1.885-1.412,3.135 c-0.002,0.73,0.211,1.494,0.649,2.188c0.552,0.872,1.424,1.628,2.633,2.248h-6.588c-0.878,0-1.591,0.712-1.591,1.59v5.897h15.396 v-7.488h1.873v7.488h15.396v-5.897C272.333,249.334,271.621,248.623,270.742,248.623 M248.38,246.284 c-0.622-0.391-1-0.785-1.22-1.135c-0.22-0.354-0.294-0.662-0.296-0.963c-0.004-0.504,0.248-1.042,0.691-1.461 c0.437-0.415,1.028-0.667,1.562-0.667h0.013c0.685,0,1.366,0.231,2.046,0.683c1.018,0.671,1.975,1.85,2.645,3.187 c0.342,0.676,0.609,1.39,0.789,2.087C251.528,247.694,249.532,247.013,248.38,246.284 M258.917,244.657 c0.557-0.797,1.21-1.466,1.887-1.916c0.68-0.451,1.362-0.683,2.047-0.683h0.006c0.574,0,1.117,0.22,1.494,0.55 c0.377,0.336,0.571,0.739,0.573,1.171c-0.004,0.512-0.272,1.259-1.467,2.132c-1.138,0.825-3.101,1.673-6.127,2.265 C257.62,246.974,258.177,245.704,258.917,244.657 M256.937,272.243h12.506v-13.91h-12.506V272.243z"/>
</symbol><symbol id="icon-feature-heart" viewBox="47.475 50.071 33.05 27.857">
  <path fill="#63D1BB" d="M80.525,58.808c0-4.825-3.912-8.736-8.736-8.736c-3.405,0-6.348,1.951-7.789,4.793 c-1.441-2.842-4.384-4.793-7.789-4.793c-4.825,0-8.736,3.911-8.736,8.736c0,9.127,14.657,19.121,16.525,19.121 C65.869,77.929,80.525,67.979,80.525,58.808z"/>
</symbol><symbol id="icon-feature-money" viewBox="46.212 56.834 46.575 27.332">
  <path d="M88.882,56.834H50.116c-2.156,0-3.904,1.749-3.904,3.905v19.521c0,2.156,1.748,3.905,3.904,3.905h38.766 c2.156,0,3.905-1.749,3.905-3.905V60.739C92.787,58.583,91.038,56.834,88.882,56.834z M49.235,81.784V59.551h40.202v22.233H49.235z"/>
  <path d="M53.14,77.88h32.395V63.456H53.14V77.88z M69.5,65.354c2.936,0,5.315,2.38,5.315,5.314c0,2.936-2.379,5.314-5.315,5.314 s-5.314-2.379-5.314-5.314C64.185,67.733,66.564,65.354,69.5,65.354z"/>
</symbol><symbol id="icon-feature-rocket" viewBox="612.532 500.386 54.156 23.183">
  <g>
    <path d="M652.844,506.098c-3.647-0.971-7.839-1.667-12.359-1.666c-2.891,0.001-5.457,0.243-7.71,0.623l-6.784-4.668l-13.456,0.005 l5.811,6.184h8.447c-4.58,1.598-6.759,3.515-6.759,3.515l0.002,3.777c0,0,2.313,1.912,6.931,3.518l-8.623-0.005l-5.811,6.188 l13.455,0.002l6.816-4.692c2.261,0.398,4.822,0.647,7.681,0.648c4.522-0.001,8.712-0.697,12.36-1.667 c-1.176-1.775-1.915-3.743-1.918-5.877C650.93,509.842,651.665,507.871,652.844,506.098z"/>
    <path d="M656.267,507.132c-1.284,1.605-1.969,3.25-1.965,4.84c-0.007,1.597,0.677,3.238,1.968,4.847 c6.399-2.162,10.419-4.841,10.419-4.841S662.67,509.298,656.267,507.132z"/>
  </g>
</symbol><symbol id="icon-flag" viewBox="-11.34 -28.346 46.68 81.691">
  <g id="miu">
    <g id="Artboard-1" transform="translate(-755.000000, -443.000000)">
      <g id="slice" transform="translate(215.000000, 119.000000)">
      </g>
      <g id="editor-flag-triangle-notification-glyph">
        <path fill="#63D1BB" d="M751.439,418.545v38.9l38.9-19.451L751.439,418.545z M743.66,496.346v-81.691h3.805v81.691H743.66z"/>
      </g>
    </g>
  </g>
  <g>
    <rect x="-11.34" y="-28.346" fill="#231F20" width="3.805" height="81.691"/>
  </g>
</symbol><symbol id="icon-insta" viewBox="53.115 53.19 21.769 21.334">
  <g id="instagram">
    <g>
      <path fill="#231F20" d="M74.881,65.336c-0.013-2.395-0.344-4.788-0.303-7.135c-0.023-0.788-0.086-1.535-0.152-2.278 c-0.105-0.3-0.111-0.699-0.152-1.062c-0.26-0.17-0.222-0.64-0.456-0.835c-0.423-0.233-1.201-0.114-1.744-0.22 c-0.657-0.026-1.254-0.115-1.899-0.153c-1.936-0.101-3.973-0.076-5.996-0.076c-2.001,0-3.954-0.145-5.695-0.379h-2.202 c-0.097,0.004-0.105,0.098-0.227,0.076c-0.599,0.034-1.077,0.188-1.595,0.303c-0.21,0.119-0.421,0.235-0.683,0.304 c-0.136,0.192-0.513,0.145-0.607,0.379c-0.186,0.212,0.185,0.451,0,0.607v0.911c0.173,0.13,0.027,0.58,0.075,0.835v0.987 c-0.017,1.281,0.134,2.397,0.076,3.72c0.467,2.762,0.374,6.537,0.076,9.413c0.155,0.579,0.363,1.105,0.455,1.746 c0.256,0.479,0.335,1.133,0.683,1.52c0.502,0.206,1.233,0.186,1.898,0.229c0.383,0.098,0.667,0.293,1.14,0.30 c2.843-0.21,5.496-0.154,8.427-0.229c2.704,0.24,5.802,0.188,8.275-0.228c0.195-0.134,0.128-0.529,0.228-0.76 c-0.056-0.385,0.207-0.449,0.228-0.759C74.862,70.157,74.895,67.763,74.881,65.336z M61.899,59.111 c0.757-0.153,1.48-0.341,2.429-0.304c0.71,0.076,1.287,0.283,1.897,0.456c0.116,0.184-0.243,0.547,0.153,0.684v0.076 c0.059,0.017,0.149,0.002,0.151,0.076c0.445,0.035,0.794,0.167,1.063,0.379c0.45,0.055,0.536,0.476,1.138,0.3 c-0.091,0.213-0.084,0.524-0.075,0.835c0.324,1.183,0.475,2.81,0.303,4.252c-0.164,0.163-0.215,0.442-0.303,0.683 c-0.311,0.322-0.481,0.785-0.836,1.062c-0.095,0.236-0.25,0.408-0.454,0.533c-0.116,0.213-0.206,0.452-0.457,0.53 c-0.298,0.163-0.577,0.011-0.834-0.076c-0.446,0.162-0.904,0.312-1.215,0.607c-0.816-0.096-1.648-0.175-2.43-0.304 c-0.242-0.139-0.487-0.273-0.835-0.305c-0.227-0.204-0.496-0.364-0.836-0.455c-0.101-0.127-0.337-0.118-0.455-0.229 c-0.198-0.029-0.229-0.227-0.456-0.229c-0.118-0.412-0.443-0.618-0.532-1.062c-0.226-0.331-0.308-0.805-0.455-1.215 c-0.043-1.434,0.091-2.692,0.379-3.796c0.346-0.591,0.779-1.094,1.138-1.67c0.249,0.021,0.365-0.09,0.38-0.304 c0.306,0.053,0.434-0.072,0.684-0.075C61.698,59.568,61.71,59.251,61.899,59.111z M60.229,56.378 c-0.117-0.263-0.066-0.691-0.075-1.062c-0.007-0.285,0.278-0.279,0.304-0.532c-0.003-0.074-0.093-0.059-0.152-0.076 c0.126-0.146,0.701-0.097,0.834,0c0.132,0.537-0.354,0.455-0.531,0.684c0.011,0.167,0.322,0.032,0.456,0.076 c0.029,0.854-0.059,1.496,0,2.202h-0.456c-0.007,0.234,0.229,0.226,0.456,0.228c-0.059,0.286,0.092,0.363,0.075,0.607 c-0.226,0.153-0.716,0.042-1.062,0.075C59.975,57.986,60.313,57.205,60.229,56.378z M59.546,54.784 c0.088-0.013,0.134,0.016,0.151,0.076c0.179,0.253,0.01,0.683-0.076,0.911C59.448,55.592,59.595,55.089,59.546,54.784z M59.698,56.606c-0.132-0.069-0.168-0.237-0.152-0.456C59.678,56.221,59.713,56.388,59.698,56.606z M59.698,57.973 c-0.058,0.139-0.082-0.045-0.076-0.152C59.68,57.682,59.703,57.866,59.698,57.973z M59.546,58.201 c0.175-0.024,0.084,0.219,0.228,0.227c-0.009,0.193-0.283,0.179-0.38,0.077C59.433,58.393,59.507,58.312,59.546,58.201z M57.192,56.985c0.006-0.108,0.013-0.214-0.076-0.228c-0.073-0.733,0.13-1.415,0-1.973c0.25-0.155,0.769-0.042,1.139-0.077v1.139 c-0.088,0.064-0.203,0.101-0.379,0.077c-0.054,0.28,0.324,0.131,0.379,0.304c0.008,0.853-0.056,1.777,0.152,2.429 c-0.565-0.059-0.906,0.107-1.442,0.076c0.097-0.612-0.019-1.435,0.531-1.594C57.484,56.997,57.239,57.091,57.192,56.985z M56.661,56.985c-0.204,0.021-0.217-0.534-0.077-0.607C56.912,56.384,56.833,56.879,56.661,56.985z M56.509,57.973 c0.077-0.312,0.034-0.304,0.075-0.683C56.812,57.303,56.844,58.06,56.509,57.973z M56.737,55.923 c-0.263,0.054-0.273-0.266-0.153-0.38C56.847,55.49,56.856,55.81,56.737,55.923z M56.737,54.784 c0.033,0.159-0.052,0.201-0.076,0.304c-0.176,0.023-0.084-0.219-0.229-0.229C56.457,54.757,56.623,54.797,56.737,54.784z M56.509,58.505c0.148-0.031,0.11,0.345-0.076,0.227C56.473,58.67,56.512,58.608,56.509,58.505z M55.825,54.784 c0.029,0.259-0.438,0.32-0.379,0H55.825z M54.838,54.86c-0.034,0.219-0.326,0.179-0.379,0.379 C54.245,55.069,54.543,54.771,54.838,54.86z M54.383,55.619c0.226-0.205,0.451-0.41,0.684-0.607 c-0.021-0.123,0.071-0.131,0.076-0.228h0.229c0.102,0.381-0.261,0.296-0.305,0.531c0.021,0.122-0.072,0.131-0.075,0.227 c0.02,0.335,0.121,0.588,0.075,0.988c-0.27,0.008-0.276,0.28-0.607,0.227C54.482,56.329,54.325,56.083,54.383,55.619z M54.459,58.884V57.29c0.195-0.185,0.396-0.364,0.607-0.532c0.295,0.489,0.179,1.392,0.455,1.897 C55.246,58.812,54.771,58.766,54.459,58.884z M72.68,69.968c-0.109,0.954-0.158,1.968-0.379,2.809 c-2.89,0.123-6.02,0.005-8.883,0.153c-0.199,0.045-0.273-0.031-0.229-0.229c-0.253,0-0.258,0.247-0.531,0.229 c0.201-0.336,0.438-0.898,0.151-1.291c-0.797,0.013-0.797,0.821-1.138,1.291c-0.686-0.053-1.137,0.127-1.823,0.075 c0.18-0.705,0.75-1.021,0.911-1.745c-0.395-0.55-0.989,0.138-1.214,0.455c-0.204,0.48-0.557,0.81-0.76,1.29H57.8 c0.238-0.469,0.489-0.926,0.759-1.366c0.171-0.512,0.625-0.741,0.683-1.367c-0.157-0.28-0.42-0.029-0.683,0 c-0.123,0.182-0.272,0.335-0.38,0.531c-0.232,0.376-0.501,0.714-0.684,1.14c-0.181,0.208-0.335,0.003-0.53,0.227 c-0.389,0.271-0.581,0.736-0.988,0.987c-0.174-0.06,0.039-0.356,0.153-0.38c0.045-0.181-0.096-0.55,0.075-0.607 c0.063-0.366,0.212-0.647,0.379-0.91c0.119-0.742,0.521-1.199,0.684-1.898c-0.559,0.099-0.674,0.643-0.988,0.987 c-0.212,0.445-0.542,0.772-0.683,1.291c-0.174-0.131-0.028-0.58-0.076-0.836c0.122-0.586,0.298-1.119,0.38-1.746 c0.133-0.22,0.173-0.535,0.228-0.834c0.168-0.209,0.046-0.61-0.077-0.761c-0.226,0.027-0.374,0.133-0.455,0.304 c-0.192-0.032-0.193,0.506-0.304,0.304c-0.045-2.587-0.451-4.812-0.456-7.438c0.026-0.331-0.183-0.424-0.228-0.685 c1.629,0.028,3.121,0.091,4.783,0.229c-0.089,0.139-0.199,0.257-0.304,0.379c-0.144,0.07-0.226,0.173-0.378,0.304 c-0.604,1.653-0.975,3.984-0.607,6.15c0.229,0.58,0.589,1.029,0.986,1.441c0.907,0.485,1.635,1.149,2.506,1.671 c1.701,0.361,3.84,0.369,5.541,0c0.236-0.12,0.484-0.226,0.685-0.38c1.364-1.242,2.753-2.459,2.961-4.859v-1.367 c-0.197-1.598-0.688-2.905-1.747-3.644c0.331-0.22,1.099,0.043,1.67,0.076c0.223,0.013,0.447,0.014,0.684,0 c0.408-0.024,0.928-0.055,1.443,0c0.144,0.187,0.113,0.544,0.228,0.76c-0.062,1.684-0.192,3.3-0.152,5.087 c0.103,0.454,0.127,0.986,0.229,1.441C73.046,68.209,72.9,69.126,72.68,69.968z M73.059,58.808 c-0.639-0.12-1.232-0.284-1.897-0.379c0.072-0.333,0.799-0.01,0.987-0.228c0.385-0.223,0.295-0.92,0.304-1.51 c0.032-0.348,0.114-0.644,0.076-1.063c-0.401-0.951-1.783-0.421-2.886-0.455c-0.225,0.718-0.47,1.8-0.304,2.657 c0.169,0.49,1.024,0.292,1.519,0.456c-0.14,0.332-0.688,0.057-0.987,0.076c-0.296-0.083-0.707-0.052-0.986-0.151 c-2.285,0.078-4.284,0.004-6.529,0.151c0.117-1.248,0.063-2.465-0.076-3.645h3.112c-0.344,0.364-0.912,0.507-1.29,0.835 c-0.44,0.244-0.861,0.505-1.139,0.911c0.249,0.134,0.535-0.245,0.759-0.379c0.355-0.074,0.479-0.381,0.835-0.455 c0.423-0.438,1.096-0.625,1.67-0.912c0.378-0.022,0.697,0.013,0.987,0.077c1.283,0.007,2.456,0.126,3.796,0.076 c0.614,0.145,1.45,0.069,1.974,0.304c0.107,0.298,0.231,0.579,0.305,0.911C73.297,57.071,73.14,57.901,73.059,58.808z M67.214,55.088C67.324,55.041,67.205,54.996,67.214,55.088L67.214,55.088z M67.214,55.088c-0.529,0.154-1.019,0.348-1.367,0.682 C66.331,55.572,66.906,55.464,67.214,55.088z M68.276,55.695C68.387,55.648,68.269,55.604,68.276,55.695L68.276,55.695z M66.53,56.606c0.727-0.158,1.181-0.591,1.746-0.911c-0.437,0.019-0.592,0.32-0.987,0.379 C67.074,56.291,66.689,56.334,66.53,56.606z M65.847,55.771C65.736,55.818,65.854,55.863,65.847,55.771L65.847,55.771z M65.164,56.378C65.274,56.332,65.156,56.286,65.164,56.378L65.164,56.378z M65.089,56.454c0.063,0.014,0.07-0.03,0.075-0.076 C65.1,56.364,65.092,56.408,65.089,56.454z M65.012,56.53c0.064,0.014,0.072-0.03,0.077-0.076 C65.022,56.441,65.017,56.483,65.012,56.53z M64.178,57.138c0.346-0.134,0.613-0.348,0.834-0.607 C64.664,56.664,64.397,56.878,64.178,57.138z M66.454,58.125c0.533-0.049,0.749-0.416,1.215-0.531 c0.284-0.298,0.784-0.381,0.987-0.76c-0.56,0.023-0.766,0.399-1.216,0.531C67.156,57.662,66.689,57.778,66.454,58.125z M64.178,57.138C63.861,57.064,64.162,57.365,64.178,57.138L64.178,57.138z M63.645,57.517c0.021,0.021,0.115-0.037,0.076-0.077 C63.7,57.42,63.605,57.478,63.645,57.517z M66.454,58.125C66.344,58.172,66.461,58.216,66.454,58.125L66.454,58.125z M65.314,59.946c-0.223-0.231-0.676-0.233-0.986-0.379c-0.697-0.038-1.223,0.093-1.746,0.229c-0.304,0.151-0.607,0.304-0.91,0.454 c-0.266,0.166-0.444,0.417-0.76,0.532c-0.205,0.225-0.352,0.51-0.684,0.607c-0.004,0.223-0.173,0.281-0.304,0.379 c-0.089,0.115-0.094,0.312-0.227,0.381c-0.007,0.12,0.036,0.29-0.076,0.303c0.108,1.512,0.291,2.948,0.683,4.177 c0.287,0.623,0.975,0.846,1.442,1.29c0.589,0.297,1.328,0.444,2.126,0.531c0.277-0.052,0.553-0.105,0.911-0.076 c1.209-0.209,2.098-0.736,2.81-1.441c0.1-0.281,0.252-0.508,0.455-0.684c-0.254-0.671,0.293-1.098,0.455-1.59 c0.002-1.344-0.201-2.48-0.607-3.415c-0.256-0.579-0.92-0.751-1.366-1.139c-0.059-0.018-0.15-0.003-0.151-0.077 C66.11,59.892,65.646,59.789,65.314,59.946z M61.899,64.273c-0.113-0.063-0.109-0.244-0.152-0.379 C62.003,63.816,61.865,64.131,61.899,64.273z M61.975,64.578c0.041-0.117,0.079-0.006,0.076,0.075 C62.011,64.771,61.972,64.658,61.975,64.578z M62.431,62.527c0.015-0.086,0.075-0.042,0.075,0 C62.492,62.614,62.431,62.57,62.431,62.527z M64.101,60.402c-0.203,0.258,0.041,0.576,0.077,0.836 C63.873,61.199,63.604,60.351,64.101,60.402z M64.48,64.35c-0.04-0.038,0.055-0.097,0.076-0.076 C64.596,64.312,64.502,64.371,64.48,64.35z M65.239,67.234c0.034-0.109,0.066,0.008,0.152,0 C65.373,67.331,65.241,67.311,65.239,67.234z M67.44,64.653c-0.233-0.057-0.145,0.208-0.379,0.152 c0.069-0.159,0.118-0.338,0.229-0.455C67.424,64.369,67.462,64.48,67.44,64.653z M66.303,60.857 c0.211,0.119,0.441,0.217,0.606,0.381c0.085,0.219,0.243,0.363,0.38,0.529c0.058,0.778,0.179,1.492,0.151,2.354 c-0.257,0.099-0.438,0.271-0.683,0.381c-0.78-0.006-1.358-0.212-1.897-0.456c-0.171-0.259-0.355-0.505-0.532-0.759v-1.062 c0.17-0.185,0.319-0.391,0.456-0.607c0.228-0.127,0.508-0.201,0.454-0.607c-0.038-0.062-0.078-0.124-0.075-0.229 c0.158,0.045,0.245,0.159,0.379,0.229C65.865,61.028,65.952,60.811,66.303,60.857z"/>
      </g>
    </g>
  </symbol><symbol id="icon-interior" viewBox="-259.404 -19.675 40.219 62.411">
  <g>
    <path d="M-244.227,18.283c-0.286,0.966-0.245,2.191,0.027,3.639c0.494,2.635,1.687,6.041,2.358,9.67h5.062 c0.696-3.641,1.949-7.05,2.471-9.683c0.287-1.445,0.33-2.66,0.041-3.617c-0.275-0.899-0.89-1.618-2.021-2.303h-5.997 C-243.361,16.668-243.96,17.38-244.227,18.283z"/>
    <path d="M-232.395,38.278h-13.799c-1.293,0-2.299,0.976-2.299,2.229v2.229h2.299h13.799h2.299v-2.229 C-230.096,39.254-231.102,38.278-232.395,38.278z"/>
    <path d="M-225.262-17.446h-11.732c0-1.244-1.015-2.229-2.3-2.229c-1.283,0-2.3,0.985-2.3,2.229h-11.737l-6.073,25.517 c0.794-0.461,1.589-0.992,2.632-0.992c1.359,0,2.243,0.818,2.924,1.375c0.682,0.557,1.162,0.849,1.447,0.849 c0.292,0.001,0.769-0.287,1.451-0.836c0.681-0.548,1.564-1.358,2.915-1.358c1.349,0,2.237,0.806,2.919,1.354 c0.684,0.549,1.161,0.84,1.451,0.84c0.146,0,0.338-0.073,0.58-0.214c0.242-0.141,0.53-0.353,0.872-0.626 c0.512-0.411,1.139-0.967,1.99-1.218c0.284-0.085,0.593-0.136,0.93-0.136c1.347,0,2.238,0.805,2.92,1.354 c0.683,0.548,1.159,0.84,1.451,0.84c0.287-0.002,0.766-0.296,1.445-0.85c0.684-0.554,1.571-1.367,2.925-1.367 c1.356,0,2.239,0.817,2.919,1.371c0.342,0.276,0.631,0.489,0.872,0.631c0.24,0.143,0.431,0.214,0.575,0.214 c0.288,0,0.762-0.293,1.442-0.854c0.68-0.559,1.567-1.384,2.929-1.384c1.044,0,1.839,0.533,2.632,0.997L-225.262-17.446z"/>
    <path d="M-235.881,33.82h-6.864c-0.657,0-1.15,0.479-1.15,1.115c0,0.635,0.493,1.113,1.15,1.113h6.9c0.655,0,1.15-0.479,1.15-1.113 c0-0.636-0.495-1.115-1.15-1.115H-235.881z"/>
    <path d="M-239.295,9.336c-0.146,0-0.338,0.074-0.58,0.213c-0.157,0.094-0.37,0.261-0.57,0.41v3.731h2.299V9.959 C-238.651,9.581-239.054,9.336-239.295,9.336z"/>
  </g>
</symbol><symbol id="icon-left-arrow" viewBox="0 0 50 26.003">
  <polygon points="50,11.002 7.659,11.002 15.833,2.828 13.005,0 0,12.998 0.003,13.001 0,13.005 13.005,26.003 15.833,23.175 7.661,15.002 50,15.002 "/>
</symbol><symbol id="icon-mail" viewBox="0 0 32 32">
  <path id="mail" fill="#333333" d="M28,5H4C1.791,5,0,6.792,0,9v13c0,2.209,1.791,4,4,4h24c2.209,0,4-1.791,4-4V9 C32,6.792,30.209,5,28,5z M2,10.25l6.999,5.25L2,20.75V10.25z M30,22c0,1.104-0.898,2-2,2H4c-1.103,0-2-0.896-2-2l7.832-5.875 l4.368,3.277c0.533,0.397,1.166,0.6,1.8,0.6c0.633,0,1.266-0.201,1.799-0.6l4.369-3.277L30,22L30,22z M30,20.75l-7-5.25l7-5.25 V20.75z M17.199,18.602c-0.35,0.263-0.763,0.4-1.199,0.4s-0.851-0.139-1.2-0.4L10.665,15.5l-0.833-0.625L2,9.001V9 c0-1.103,0.897-2,2-2h24c1.102,0,2,0.897,2,2L17.199,18.602z"/>
</symbol><symbol id="icon-map-pin" viewBox="0 0 66 100.801">
  <path fill="#FFFFFF" d="M56.334,9.228c-12.892-12.305-33.773-12.305-46.667,0c-12.891,12.297-12.891,32.248,0,44.542 c0,0,23.318,21.832,23.318,47.031c0-25.199,23.343-47.031,23.343-47.031C69.225,41.476,69.225,21.525,56.334,9.228z"/>
  <path fill="#6BC6B3" d="M47.036,45.522c-0.636-3.277,0.13-6.947,0.027-10.284c-0.115-3.755-0.713-7.485-0.665-11.246 c0.039-3.044,0.545-6.173-0.503-9.091c0.065-0.332,0.134-0.662,0.195-0.995c0.271-1.463-4.577-0.689-5.338,0.649 c-0.479,0.393-0.726,0.861-0.523,1.339c0.051,0.121,0.097,0.243,0.142,0.365c-0.917,4.485-2.197,8.827-3.668,13.174 c-0.563,1.663-1.244,3.288-1.817,4.946c-0.814-1.545-1.638-3.071-2.3-4.728c-1.922-4.805-3.656-9.661-6-14.285 c0.266-2.14-4.484-1.916-5.421,0.044c-1.132,2.371-0.986,4.763-0.613,7.299c0.42,2.858,0.494,5.668,0.528,8.554 c0.066,5.566,0.502,11.119,0.584,16.684c-0.496,0.552-0.646,1.233-0.127,1.924c0.226,0.302,0.505,0.535,0.799,0.769 c1.265,1.013,4.899,0.15,4.893-1.779c-0.02-5.771-0.437-11.531-0.589-17.299c-0.015-0.565-0.025-1.129-0.034-1.694 c0.08,0.203,0.159,0.406,0.24,0.607c0.896,2.245,1.833,4.427,3.059,6.514c1.214,2.068,1.824,4.289,2.523,6.547 c-0.265,0.303-0.423,0.647-0.326,0.991c-0.055,0.251,0.099,0.409,0.352,0.504c0.894,0.766,2.578,0.383,3.513-0.01 c0.4-0.168,0.785-0.364,1.155-0.593c0.483-0.297,1.236-0.95,1.021-1.622c-0.041-0.13-0.081-0.26-0.121-0.391 c0.657-1.776,0.992-3.625,1.352-5.5c0.381-2,1.095-3.892,1.812-5.786c0.073,0.867,0.149,1.732,0.219,2.597 c0.285,3.575,0.046,7.099,0.011,10.674c-0.013,1.186,0.074,2.287,0.306,3.445c0.096,0.479,0.514,2.53,0.394,2.642 c-0.855,0.79-0.606,1.759,0.539,2.011c1.279,0.281,2.912-0.148,3.877-1.039C48.207,49.911,47.414,47.479,47.036,45.522z"/>
</symbol><symbol id="icon-menu-close" viewBox="0 0 20.514 20.512">
  <polygon fill="#231F20" points="20.513,1.414 19.099,0 10.256,8.842 1.414,0 0,1.414 8.842,10.256 0,19.098 1.414,20.512 10.256,11.67 19.099,20.512 20.513,19.098 11.671,10.256 "/>
</symbol><symbol id="icon-menu-open" viewBox="0 0 19.958 14">
  <rect fill="#231F20" width="19.958" height="2"/>
  <rect y="6" fill="#231F20" width="19.958" height="2"/>
  <rect y="12" fill="#231F20" width="19.958" height="2"/>
</symbol><symbol id="icon-phone" viewBox="0 0 24.829 24.333">
  <g>
    <g id="UrwUhy_2_">
      <g>
        <path d="M17.321,24.333c-0.371,0-0.744,0-1.115,0c-4.904-0.58-8.497-2.857-11.11-5.772C2.473,15.637,0.402,11.875,0,6.817 c0-0.453,0-0.906,0-1.358c0.091-0.921,0.544-1.55,1.067-2.086c0.65-0.666,1.63-1.522,2.522-1.553 c0.659-0.022,1.78,0.451,2.232,1.066c0.388,0.53,0.595,1.59,0.775,2.378c0.185,0.797,0.6,1.95,0.485,2.717 C6.905,9.177,5.317,9.684,4.85,10.553c1.551,3.721,4.089,6.456,7.472,8.345c0.847-0.465,1.595-1.864,2.767-1.892 c0.428-0.012,0.972,0.209,1.406,0.34c0.477,0.143,0.891,0.326,1.311,0.484c0.705,0.266,1.957,0.621,2.378,1.213 c0.433,0.61,0.681,1.608,0.581,2.231C20.571,22.508,18.538,23.877,17.321,24.333z"/>
      </g>
    </g>
    <path d="M12.529,1.528c5.949,0,10.771,4.822,10.771,10.771h1.529C24.829,5.507,19.323,0,12.529,0V1.528z"/>
    <path d="M12.529,9.327v1.552c0.785,0,1.421,0.636,1.421,1.42h1.553C15.502,10.657,14.172,9.327,12.529,9.327z"/>
    <path d="M12.529,6.246c3.345,0,6.056,2.71,6.056,6.054h1.588c0-4.22-3.422-7.641-7.644-7.641V6.246z"/>
  </g>
</symbol><symbol id="icon-play" viewBox="247.3 382.56 100.678 76.891">
  <g>
    <g>
      <path fill="#63D1BB" d="M344.255,400.708c0,0-0.92-7.008-3.785-10.078c-3.632-4.041-7.674-4.066-9.541-4.297 c-13.326-1.023-33.303-1.023-33.303-1.023h-0.051c0,0-19.978,0-33.304,1.023c-1.867,0.23-5.908,0.256-9.54,4.297 c-2.84,3.096-3.786,10.078-3.786,10.078s-0.896,8.211-0.896,16.422v7.699c0,8.21,0.947,16.421,0.947,16.421 s0.921,7.009,3.785,10.078c3.632,4.041,8.364,3.913,10.487,4.349c7.622,0.767,32.356,1.022,32.356,1.022 s20.003-0.025,33.329-1.048c1.867-0.23,5.908-0.256,9.54-4.298c2.84-3.069,3.786-10.078,3.786-10.078s0.946-8.21,0.946-16.421 v-7.699C345.202,408.919,344.255,400.708,344.255,400.708z"/>
      <path fill="#FFFFFF" d="M297.614,459.449h-0.016c-1.015-0.011-24.946-0.266-32.604-1.037l-0.14-0.014l-0.137-0.028 c-0.271-0.056-0.668-0.107-1.126-0.167c-2.503-0.328-7.159-0.938-10.839-5.019c-3.354-3.616-4.377-10.771-4.483-11.576 l-0.005-0.043c-0.039-0.342-0.965-8.463-0.965-16.736v-7.699c0-8.266,0.875-16.378,0.912-16.72l0.009-0.071 c0.108-0.802,1.155-7.928,4.474-11.557c3.996-4.439,8.531-4.899,10.712-5.121c0.192-0.02,0.37-0.037,0.529-0.058l0.126-0.013 c13.277-1.019,33.312-1.031,33.514-1.031h0.051c0.201,0,20.236,0.013,33.514,1.031l0.126,0.013 c0.159,0.021,0.337,0.038,0.529,0.058c2.179,0.221,6.71,0.682,10.704,5.112c3.354,3.616,4.377,10.771,4.483,11.577l0.005,0.043 c0.039,0.342,0.965,8.459,0.99,16.753v7.708c0,8.273-0.926,16.395-0.965,16.736l-0.007,0.053 c-0.108,0.805-1.156,7.953-4.478,11.562c-3.994,4.435-8.527,4.896-10.707,5.117c-0.193,0.02-0.371,0.037-0.53,0.057l-0.126,0.013 c-13.276,1.02-33.334,1.057-33.535,1.058L297.614,459.449L297.614,459.449z M265.67,452.952 c7.477,0.729,31.216,0.989,31.968,0.997c0.657-0.001,20.135-0.049,33.047-1.036c0.178-0.021,0.371-0.041,0.58-0.062 c1.836-0.186,4.608-0.468,7.186-3.335l0.026-0.029c1.825-1.974,2.853-6.928,3.075-8.552c0.059-0.514,0.926-8.358,0.926-16.08 v-7.699c-0.023-7.76-0.896-15.627-0.951-16.109c-0.32-2.382-1.434-6.789-3.066-8.539l-0.035-0.038 c-2.577-2.868-5.351-3.149-7.186-3.336c-0.209-0.021-0.402-0.041-0.58-0.062c-13.066-0.998-32.834-1.011-33.033-1.011h-0.051 c-0.198,0-19.967,0.013-33.033,1.011c-0.177,0.021-0.371,0.041-0.58,0.062c-1.835,0.187-4.607,0.468-7.186,3.336l-0.019,0.021 c-1.828,1.993-2.855,6.924-3.082,8.552c-0.062,0.591-0.875,8.399-0.875,16.089v7.699c0,7.749,0.871,15.598,0.926,16.083 c0.32,2.381,1.433,6.789,3.066,8.539l0.035,0.039c2.322,2.584,5.303,2.975,7.479,3.259 C264.788,452.812,265.246,452.872,265.67,452.952z"/>
    </g>
  </g>
  <g>
    <polygon fill="#FFFFFF" points="285.733,403.138 285.733,438.846 315.48,420.992 	"/>
  </g>
</symbol><symbol id="icon-right-arrow" viewBox="0 0 50 26.003">
  <polygon points="0,11.002 42.341,11.002 34.166,2.828 36.995,0 50,12.998 49.996,13.001 50,13.005 36.995,26.003 34.166,23.175 42.339,15.002 0,15.002 "/>
</symbol><symbol id="icon-search" viewBox="-0.8 -0.8 17.6 17.6">
  <path fill="#231F20" d="M16.47,14.93l-3.415-3.415C14.02,10.226,14.6,8.634,14.6,6.899c0-4.253-3.447-7.699-7.7-7.699 S-0.8,2.646-0.8,6.899s3.446,7.7,7.699,7.7c1.734,0,3.326-0.58,4.613-1.546l3.417,3.416c0.203,0.202,0.418,0.33,0.771,0.33 c0.607,0,1.1-0.492,1.1-1.1C16.8,15.459,16.739,15.2,16.47,14.93z M1.399,6.899c0-3.038,2.462-5.5,5.5-5.5s5.5,2.462,5.5,5.5 s-2.462,5.5-5.5,5.5S1.399,9.938,1.399,6.899z"/>
</symbol><symbol id="icon-tick" viewBox="0 0 32.666 22.742">
  <polygon points="32.666,1.414 31.252,0 11.338,19.914 1.414,9.989 0,11.403 9.924,21.328 9.924,21.328 11.338,22.742 11.338,22.742 11.339,22.742 12.753,21.328 12.752,21.328 "/>
</symbol><symbol id="icon-toy" viewBox="226.001 226.19 60 59.62">
  <path fill="#149080" d="M226.001,269.871l27.438,15.934v-23.346l-27.438-15.94V269.871z M277.347,238.627v2.453 c0,1.817-3.458,3.29-7.73,3.29c-4.266,0-7.727-1.473-7.727-3.29v-4.059h0.024c0.26,1.714,3.604,3.073,7.702,3.073 c4.272,0,7.729-1.474,7.729-3.285c0-1.819-3.457-3.289-7.729-3.289c-0.339,0-0.675,0.01-1.002,0.03l-4.975-2.888v3.086 c0,1.817-3.454,3.29-7.723,3.29c-2.683,0-5.045-0.583-6.433-1.467c-0.196-0.203-0.439-0.401-0.732-0.586 c-0.363-0.381-0.565-0.797-0.565-1.236v-2.986l-4.807,2.792c-0.347-0.017-0.696-0.033-1.054-0.033c-4.267,0-7.727,1.469-7.727,3.289 c0,1.811,3.46,3.285,7.727,3.285c4.099,0,7.446-1.358,7.705-3.073h0.022v4.059c0,1.817-3.455,3.29-7.727,3.29 c-4.267,0-7.727-1.473-7.727-3.29v-2.42l-5.952,3.452l27.531,15.986l27.351-15.882L277.347,238.627z M263.703,248.793 c0,1.817-3.46,3.287-7.727,3.287c-4.269,0-7.729-1.47-7.729-3.287v-4.059h0.024c0.26,1.715,3.603,3.076,7.705,3.076 c4.101,0,7.443-1.361,7.705-3.076h0.021V248.793L263.703,248.793z M258.558,262.666v23.144L286,269.871v-23.144L258.558,262.666z  M255.917,232.762c4.269,0,7.723-1.47,7.723-3.286c0-1.814-3.454-3.287-7.723-3.287c-4.27,0-7.729,1.472-7.729,3.287 C248.187,231.292,251.647,232.762,255.917,232.762"/>
</symbol><symbol id="icon-twitter" viewBox="52.253 53.771 23.494 20.168">
  <g id="twitter">
    <g>
      <path fill="#231F20" d="M75.706,57.855c-0.227-0.366-0.909-0.277-1.407-0.371h-1.112c0.142-0.353,0.343-0.646,0.52-0.963 c0.056-0.438,0.254-0.734,0.223-1.26c0.129-0.167,0.176-0.417,0.296-0.593c0.104-0.144,0.242-0.477,0.074-0.667 c-0.051-0.221-0.295-0.249-0.593-0.222c-0.088,0.036-0.169,0.079-0.222,0.148c-0.448,0.433-0.778,1.014-1.261,1.408 c-0.009,0.008-0.062,0-0.074,0c-0.087,0.005-0.033,0.046-0.075,0.074c-0.146,0.098-0.257,0.152-0.369,0.223 c-0.284,0.176-0.547,0.445-0.891,0.519c-0.529-0.211-1.156-0.326-1.852-0.37c-1.157,0.102-2.303,0.215-3.038,0.741 c-0.911,0.35-1.477,1.042-2.149,1.63c-0.049,0.32-0.342,0.398-0.37,0.741c-0.005,0.045-0.012,0.088-0.073,0.074 c0.043,0.241-0.051,0.345-0.074,0.519c-0.001,0.133,0.199,0.431,0,0.52c-0.822-0.12-1.485-0.63-2.149-0.964 c-0.718-0.36-1.468-0.604-2.074-1.111c-0.716-0.322-1.26-0.816-1.778-1.334c-0.208-0.312-0.542-0.496-0.667-0.89 c-0.379-0.164-0.175-0.912-0.741-0.889c-0.315-0.043-0.345,0.199-0.444,0.37c-0.07,0.227-0.361,0.232-0.371,0.519 c-0.004,0.046-0.011,0.088-0.074,0.075c-0.17,1.089-0.527,1.992-0.519,3.26c0.129,0.415,0.35,0.738,0.593,1.038 c-0.418,0.051-0.716,0.222-0.89,0.519c-0.06,1.073,0.378,1.647,0.742,2.297c0.134,0.384,0.352,0.685,0.593,0.963 c0.017,0.229,0.206,0.288,0.296,0.445c0.019,0.105,0.123,0.125,0.149,0.223c-0.04,0.105,0.289,0.18,0.073,0.221 c-0.413,0.131-1.016,0.07-1.259,0.371c-0.109,0.279-0.109,0.833,0,1.111c0.034,0.237,0.282,0.262,0.296,0.519 c0.499,0.417,1.082,0.747,1.631,1.112c0.574,0.166,1.211,0.271,1.852,0.37c-0.102,0.343-0.338,0.551-0.593,0.741 c-0.78,0.381-1.849,0.474-2.742,0.74c-0.555,0.038-0.956,0.23-1.556,0.223c-0.333,0.127-0.854,0.075-1.112,0.223 c-0.122,0.068-0.102,0.096-0.222,0.221c-0.134,0.412,0.111,0.74,0.444,0.89c-0.005,0.253,0.219,0.276,0.371,0.371 c0.089,0.183,0.254,0.29,0.445,0.37c0.544,0.468,1.268,0.759,1.927,1.112c0.83,0.183,1.648,0.376,2.52,0.519 c0.896,0.116,1.901,0.124,2.816,0.222h0.963c0.511,0.132,1.23,0.054,1.853,0.074c0.095-0.102,0.322-0.073,0.519-0.074 c0.522-0.269,1.196-0.385,1.631-0.74c0.574-0.241,0.989-0.642,1.557-0.89c0.866-0.765,1.937-1.324,2.519-2.37 c0.205-0.189,0.351-0.438,0.445-0.74c0.265-0.156,0.385-0.454,0.593-0.667c0.404-0.41,0.706-0.924,1.037-1.40 c0.319-0.496,0.576-1.054,0.89-1.556c-0.01-0.405,0.306-0.484,0.296-0.89c0.193-0.226,0.177-0.662,0.371-0.88 c-0.033-0.255,0.029-0.415,0.074-0.594c0.047-1.281-0.047-2.422-0.297-3.407c0.588-0.155,1.181-0.302,1.631-0.593 C75.418,58.93,75.891,58.533,75.706,57.855z M72.298,61.931c-0.153,0.859-0.615,1.41-1.038,2.001 c0.059,0.379-0.104,0.538-0.073,0.889c-0.158,0.312-0.287,0.652-0.371,1.037c-0.203,0.267-0.332,0.606-0.519,0.89 c-0.366,0.548-0.777,1.051-1.186,1.557c-0.378,0.56-0.912,0.965-1.334,1.481c-0.42,0.493-0.942,0.885-1.407,1.334 c-0.474,0.17-0.89,0.396-1.26,0.667c-0.232,0.09-0.463,0.18-0.667,0.296c-0.177,0.146-0.499,0.145-0.668,0.29 c-1.086,0.147-2.3,0.17-3.555,0.148c-1.031-0.105-2.115-0.159-3.039-0.371c-0.922-0.189-1.511-0.712-2.297-1.037 c0.153-0.242,0.634-0.154,0.963-0.222c0.031-0.166,0.394-0.003,0.444-0.149c0.257,0.06,0.285-0.109,0.52-0.07 c0.563-0.201,1.23-0.302,1.705-0.593c0.282-0.138,0.406-0.434,0.667-0.593c0.033-0.189,0.104-0.341,0.222-0.444 c0.047-0.275,0.201-0.441,0.148-0.815c0.111-0.21,0.299-0.343,0.296-0.667c-0.074-0.147-0.128-0.316-0.296-0.371 c-0.026-0.196-0.377-0.067-0.444-0.222c-0.255,0.032-0.416-0.029-0.593-0.075c-0.154-0.043-0.487,0.092-0.519-0.073 c-0.842-0.023-1.3-0.43-1.853-0.74c0.431-0.262,1.032-0.353,1.333-0.742c0.516-0.076,1.058-0.129,1.112-0.666 c0-0.717-0.771-0.661-1.333-0.815c-0.773-0.66-1.194-1.672-1.779-2.52c0.238-0.157,0.564-0.226,0.741-0.444 c0.454,0.058,0.54-0.251,0.667-0.52c0.019-0.488-0.333-0.605-0.593-0.815c-0.259-0.21-0.475-0.462-0.667-0.74 c-0.003-0.818-0.021-1.652,0.074-2.372c0.063-0.014,0.07,0.029,0.074,0.074c0.227,0.441,0.559,0.775,0.815,1.186 c0.532,0.357,0.925,0.853,1.556,1.112c0.452,0.413,1.108,0.621,1.557,1.038c0.601,0.263,1.158,0.57,1.704,0.889 c0.669,0.194,1.056,0.673,2.001,0.593c0.198-0.098,0.394-0.199,0.593-0.297c0.258-0.456-0.059-1.079,0.147-1.63 c0.255-0.659,0.797-1.031,1.26-1.481c0.29-0.155,0.555-0.335,0.815-0.519c0.347-0.098,0.675-0.216,0.964-0.37 c0.376-0.019,0.713-0.077,1.037-0.148h1.26c0.244,0.052,0.475,0.119,0.74,0.148c0.209,0.137,0.38,0.313,0.666,0.371 c0.789,0.693,1.271,1.696,1.409,3.039C72.175,60.934,72.35,61.323,72.298,61.931z M72.594,56.299 c-0.129,0.34-0.23,0.707-0.593,0.815c-0.017-0.105-0.122-0.125-0.147-0.222c-0.012-0.209,0.209-0.186,0.296-0.296 C72.312,56.511,72.395,56.348,72.594,56.299C72.587,56.209,72.702,56.253,72.594,56.299z M67.11,59.337 c0.163,0.135,0.284,0.31,0.519,0.371c0.101,0.221,0.314,0.327,0.594,0.37c0.047-0.15,0.346-0.049,0.37-0.222 c0.174-0.023,0.166-0.229,0.296-0.297c-0.018-0.55-0.129-1.006-0.37-1.333C67.761,57.803,66.843,58.265,67.11,59.337z"/>
    </g>
  </g>
</symbol><symbol id="icon-video" viewBox="0 0 32 32">
<g transform="translate(0 192)">
  <path d="M26-177l6-4v16l-6-4V-177z M24-177v8c0,2.209-1.791,4-4,4H4c-2.209,0-4-1.791-4-4v-8c0-2.209,1.791-4,4-4h10 c0-1.105,0.895-2,2-2v-2H5c-0.553,0-1-0.447-1-1s0.447-1,1-1h12c0.553,0,1,0.447,1,1v3c1.105,0,2,0.895,2,2 C22.209-181,24-179.209,24-177z M12-177H4v8h8V-177z M20-176c0-0.553-0.447-1-1-1h-4c-0.553,0-1,0.447-1,1s0.447,1,1,1h4 C19.553-175,20-175.447,20-176z"/>
</g>
</symbol></svg>
